<?xml version="1.0" standalone="no"?>
<!DOCTYPE svg PUBLIC "-//W3C//DTD SVG 20010904//EN"
 "http://www.w3.org/TR/2001/REC-SVG-20010904/DTD/svg10.dtd">
<svg version="1.0" xmlns="http://www.w3.org/2000/svg"
 width="1185.000000pt" height="1280.000000pt" viewBox="0 0 1185.000000 1280.000000"
 preserveAspectRatio="xMidYMid meet">
<metadata>
Created by potrace 1.15, written by Peter Selinger 2001-2017
</metadata>
<g transform="translate(0.000000,1280.000000) scale(0.100000,-0.100000)"
fill="#000000" stroke="none">
<path d="M2642 12784 c-386 -65 -711 -344 -837 -717 -191 -569 138 -1195 716
-1361 378 -108 779 -5 1052 271 94 95 155 180 207 289 114 237 137 509 64 762
-149 517 -670 845 -1202 756z"/>
<path d="M5295 11424 c-243 -36 -464 -113 -793 -277 l-184 -91 -63 -81 c-81
-104 -249 -265 -352 -338 -113 -80 -276 -163 -364 -186 -41 -10 -134 -24 -206
-30 -73 -6 -193 -16 -265 -22 -215 -18 -302 -46 -429 -140 -141 -104 -270
-266 -329 -412 -53 -133 -64 -196 -63 -372 1 -331 95 -698 278 -1091 103 -220
158 -285 648 -764 234 -229 339 -361 430 -545 211 -425 386 -1286 404 -1980
12 -507 -57 -749 -367 -1280 -251 -429 -379 -607 -721 -1006 -374 -435 -479
-540 -849 -849 -464 -387 -550 -501 -575 -765 -18 -193 60 -437 167 -518 114
-87 225 -77 483 47 407 195 953 593 1325 966 454 454 855 1071 1164 1789 68
157 98 218 83 166 -14 -47 -139 -1027 -187 -1460 -28 -260 -41 -352 -115 -795
-96 -580 -100 -609 -100 -835 0 -243 8 -275 93 -367 131 -142 323 -212 487
-178 185 38 347 205 436 449 161 443 298 1271 548 3311 130 1055 136 1144 107
1415 -21 183 -33 342 -56 720 -30 482 -52 700 -96 960 -126 734 -530 1601
-1161 2492 -51 72 -93 133 -93 135 0 2 42 40 92 84 361 310 749 696 923 919
163 209 227 350 227 505 0 173 -73 309 -201 374 -77 40 -233 64 -326 50z"/>
<path d="M1010 9405 c-531 -641 -975 -1177 -988 -1193 l-22 -29 45 -102 c131
-295 255 -494 398 -640 105 -106 198 -157 346 -186 126 -26 219 -8 257 51 14
20 16 39 11 98 -14 162 -143 448 -403 892 l-18 31 74 94 c41 52 413 523 827
1047 414 524 753 956 753 960 0 6 -298 143 -310 141 -3 0 -439 -524 -970
-1164z"/>
<path d="M11233 4736 c-253 -61 -422 -311 -383 -562 48 -309 374 -504 667
-400 218 78 359 311 326 541 -42 291 -329 489 -610 421z"/>
</g>
</svg>
